# AST/ASF file generated using VICON BodyLanguage
# -----------------------------------------------
:version 1.10
:name VICON
:units
  mass 1.0
  length 0.45
  angle deg
:documentation
   .ast/.asf automatically generated from VICON data using
   VICON BodyBuilder and BodyLanguage model FoxedUp or BRILLIANT.MOD
:root
   order TX TY TZ RX RY RZ
   axis XYZ
   position 0 0 0  
   orientation 0 0 0 
:bonedata
  begin
     id 1 
     name lhipjoint
     direction 0.578396 -0.714046 0.394458 
     length 2.21935 
     axis 0 0 0  XYZ
  end
  begin
     id 2 
     name lfemur
     direction 0.34202 -0.939693 0  
     length 6.39105  
     axis 0 0 20  XYZ
    dof rx ry rz
    limits (-160.0 20.0)
           (-70.0 70.0)
           (-60.0 70.0)
  end
  begin
     id 3 
     name ltibia
     direction 0.34202 -0.939693 0   
     length 6.99037   
     axis 0 0 20   XYZ
    dof rx
    limits (-10.0 170.0)
  end
  begin
     id 4 
     name lfoot
     direction 0.0582372 -0.160005 0.985397   
     length 2.06111   
     axis -90 7.62852e-016 20   XYZ
    dof rx rz
    limits (-45.0 90.0)
           (-70.0 20.0)
  end
  begin
     id 5 
     name ltoes
     direction 1.53556e-011 -4.21875e-011 1   
     length 1.04074   
     axis -90 7.62852e-016 20   XYZ
    dof rx
    limits (-90.0 20.0)
  end
  begin
     id 6 
     name rhipjoint
     direction -0.558179 -0.726269 0.40121   
     length 2.182  
     axis 0 0 0  XYZ 
  end
  begin
     id 7 
     name rfemur
     direction -0.34202 -0.939693 0   
     length 6.51172   
     axis 0 0 -20   XYZ
    dof rx ry rz
    limits (-160.0 20.0)
           (-70.0 70.0)
           (-70.0 60.0)
  end
  begin
     id 8 
     name rtibia
     direction -0.34202 -0.939693 0   
     length 7.02607   
     axis 0 0 -20   XYZ
    dof rx
    limits (-10.0 170.0)
 end
 begin
     id 9 
     name rfoot
     direction -0.0788856 -0.216737 0.973038   
     length 1.96734  
     axis -90 -7.62852e-016 -20   XYZ
    dof rx rz
    limits (-45.0 90.0)
           (-20.0 70.0)
  end
  begin
     id 10 
     name rtoes
     direction -1.53567e-011 -4.21783e-011 1   
     length 0.990825   
     axis -90 -7.62852e-016 -20   XYZ
    dof rx
    limits (-90.0 20.0)
  end
  begin
     id 11 
     name lowerback
     direction 0.00668177 0.999323 -0.0361741   
     length 1.7655   
     axis 0 0 0   XYZ
    dof rx ry rz
    limits (-20.0 45.0)
           (-30.0 30.0)
           (-30.0 30.0)
  end
  begin
     id 12 
     name upperback
     direction -0.00222086 0.99851 0.0545167   
     length 1.74912   
     axis 0 0 0   XYZ
    dof rx ry rz
    limits (-20.0 45.0)
           (-30.0 30.0)
           (-30.0 30.0)
  end
  begin
     id 13 
     name thorax
     direction -0.00733971 0.997496 0.0703443   
     length 1.75715   
     axis 0 0 0   XYZ
    dof rx ry rz
    limits (-20.0 45.0)
           (-30.0 30.0)
           (-30.0 30.0)
  end
  begin
     id 14 
     name lowerneck
     direction 0.0279797 0.994795 0.0979765   
     length 1.46939   
     axis 0 0 0   XYZ
    dof rx ry rz
    limits (-20.0 45.0)
           (-30.0 30.0)
           (-30.0 30.0)
  end
  begin
     id 15 
     name upperneck
     direction 0.00339187 0.976776 -0.214238   
     length 1.48018   
     axis 0 0 0   XYZ
    dof rx ry rz
    limits (-20.0 45.0)
           (-30.0 30.0)
           (-30.0 30.0)
  end
  begin
     id 16
     name head
     direction -0.00263506 0.996603 -0.0823096  
     length 1.4976  
     axis 0 0 0   XYZ
    dof rx ry rz
    limits (-20.0 45.0)
           (-30.0 30.0)
           (-30.0 30.0)
  end
  begin
     id 17 
     name lclavicle
     direction 0.894044 0.44508 -0.0508781  
     length 3.03024  
     axis 0 0 0   XYZ
    dof ry rz
    limits (-20.0 10.0)
           (0.0 20.0)
  end
  begin
     id 18 
     name lhumerus
     direction 1 -4.48961e-011 -2.39475e-018   
     length 4.4661   
     axis 180 -30 -90   XYZ
    dof rx ry rz
    limits (-60.0 90.0)
           (-90.0 90.0)
           (-90.0 90.0)
  end
  begin
     id 19
     name lradius
     direction 1 -4.48961e-011 9.29328e-028   
     length 3.41414   
     axis 180 -30 -90   XYZ
    dof rx
    limits (-10.0 170.0)
  end
  begin
     id 20
     name lwrist
     direction 1 -4.48985e-011 1.53461e-026   
     length 1.70707   
     axis -1.09697e-014 90 90   XYZ
    dof ry
    limits (-180.0 0.0)
 end
  begin
     id 21 
     name lhand
     direction 1 -4.48966e-011 3.06923e-026   
     length 0.328298   
     axis -1.95843e-014 90 90   XYZ
    dof rx rz
    limits (-90.0 90.0)
           (-45.0 45.0)
  end
  begin
     id 22 
     name lfingers
     direction 1 -4.48893e-011 6.13845e-026   
     length 0.264682   
     axis -3.91686e-014 90 90   XYZ
    dof rx
    limits (0.0 90.0)
  end
  begin
     id 23
     name lthumb
     direction 0.707107 -6.34876e-011 0.707107   
     length 0.380032   
     axis -90 45 2.85299e-015   XYZ
    dof rx rz
    limits (-45.0 45.0)
           (-45.0 45.0)
  end
  begin
     id 24 
     name rclavicle
     direction -0.936955 0.347862 -0.0332887   
     length 3.26927  
     axis 0 0 0   XYZ 
    dof ry rz
    limits (-10.0 20.0)
           (-20.0 0.0)
  end
  begin
     id 25 
     name rhumerus
     direction -1 -4.4896e-011 1.78637e-018  
     length 4.40431   
     axis 180 30 90   XYZ
    dof rx ry rz
    limits (-90.0 60.0)
           (-90.0 90.0)
           (-90.0 90.0)
  end
  begin
     id 26 
     name rradius
     direction -1 -4.48955e-011 9.34036e-027   
     length 3.04688   
     axis 180 30 90   XYZ
    dof rx
    limits (-10.0 170.0)
  end
  begin
     id 27 
     name rwrist
     direction -1 -4.49011e-011 1.53461e-026   
     length 1.52344   
     axis -1.09697e-014 -90 -90   XYZ
    dof ry
    limits (-180.0 0.0)
  end
  begin
     id 28
     name rhand
     direction -1 -4.48834e-011 3.06923e-026   
     length 0.500489   
     axis -1.95843e-014 -90 -90   XYZ
    dof rx rz
    limits (-90.0 90.0)
           (-45.0 45.0)
  end
  begin
     id 29
     name rfingers
     direction -1 -4.48967e-011 6.13845e-026   
     length 0.403507   
     axis -3.91686e-014 -90 -90   XYZ
    dof rx
    limits (0.0 90.0)
  end
  begin
     id 30
     name rthumb
     direction -0.707107 -6.34826e-011 0.707107   
     length 0.579358   
     axis -90 -45 -2.85299e-015   XYZ
    dof rx rz
    limits (-45.0 45.0)
           (-45.0 45.0)
  end
:hierarchy
  begin
    root lhipjoint rhipjoint lowerback
    lhipjoint lfemur
    lfemur ltibia
    ltibia lfoot
    lfoot ltoes
    rhipjoint rfemur
    rfemur rtibia
    rtibia rfoot
    rfoot rtoes
    lowerback upperback
    upperback thorax
    thorax lowerneck lclavicle rclavicle
    lowerneck upperneck
    upperneck head
    lclavicle lhumerus
    lhumerus lradius
    lradius lwrist
    lwrist lhand lthumb
    lhand lfingers
    rclavicle rhumerus
    rhumerus rradius
    rradius rwrist
    rwrist rhand rthumb
    rhand rfingers
  end

#!OML:ASF H:\IndianDance\Patient Classification 1\Patient 1\Session 1\dancer.ASF
:FULLY-SPECIFIED
:DEGREES
1863
root 5.91684 14.4744 1.19659 -170.659 3.63002 -175.39
lowerback 6.36844 0.304347 3.28813
upperback -9.76888 1.27526 -2.99
thorax -14.2267 0.353829 -5.49337
lowerneck -14.0944 -7.96599 -2.21303
upperneck 13.1544 -11.3184 7.05972
head 6.87436 -4.83858 1.47112
rclavicle -1.15295e-014 1.59028e-014
rhumerus 46.2118 -25.0909 -9.46473
rradius 57.8688
rwrist 23.1553
rhand -49.0296 73.7194
rfingers 7.12502
rthumb -21.6574 44.9107
lclavicle -1.15295e-014 1.59028e-014
lhumerus -63.4371 -63.8404 99.6168
lradius 100.937
lwrist 80.1207
lhand 32.5773 373.658
lfingers 7.12502
lthumb 56.0079 31.0417
rfemur -35.8102 -26.4154 25.5024
rtibia 63.0153
rfoot -23.6956 -5.71921
rtoes -0.354365
lfemur -38.444 24.8274 -18.3872
ltibia 60.0472
lfoot -26.1552 9.90851
ltoes 4.32161
1864
root 5.86282 14.4576 1.20531 -170.701 3.98025 -175.489
lowerback 6.68532 0.447037 3.39678
upperback -9.74513 1.46755 -3.09864
thorax -14.3745 0.413779 -5.7249
lowerneck -13.8816 -8.15901 -2.68883
upperneck 12.8064 -11.548 7.63377
head 6.80225 -4.93577 1.71171
rclavicle 9.93923e-016 -3.81667e-014
rhumerus 45.1361 -25.2043 -9.48539
rradius 57.8703
rwrist 22.9356
rhand -49.0682 74.0139
rfingers 7.12502
rthumb -21.6945 45.2094
lclavicle 9.93923e-016 -3.81667e-014
lhumerus -63.0352 -63.8812 99.2442
lradius 100.94
lwrist 80.019
lhand 32.6594 373.67
lfingers 7.12502
lthumb 56.0806 30.997
rfemur -36.8201 -26.6076 25.0688
rtibia 64.5604
rfoot -22.5215 -4.64775
rtoes 0.0376566
lfemur -38.3999 23.9823 -18.642
ltibia 60.1144
lfoot -26.2347 10.8399
ltoes 5.17862
1865
root 5.81325 14.4401 1.21579 -170.746 4.35436 -175.683
lowerback 7.00748 0.59705 3.34931
upperback -9.71133 1.64563 -3.24214
thorax -14.5145 0.481875 -5.90637
lowerneck -13.6679 -8.36755 -3.17117
upperneck 12.4344 -11.8032 8.27217
head 6.7315 -5.0399 1.97054
rclavicle 1.98785e-014 -2.06736e-014
rhumerus 43.9885 -25.3333 -9.5152
rradius 57.8568
rwrist 22.7111
rhand -49.1275 74.1127
rfingers 7.12502
rthumb -21.7515 45.3149
lclavicle 1.98785e-014 -2.06736e-014
lhumerus -62.5411 -63.973 98.7537
lradius 100.93
lwrist 79.9027
lhand 32.7302 373.688
lfingers 7.12502
lthumb 56.1433 30.9664
rfemur -37.9767 -26.7741 24.538
rtibia 66.2555
rfoot -21.187 -3.49114
rtoes 0.777935
lfemur -38.4895 23.3289 -18.9887
ltibia 60.3317
lfoot -26.1889 11.5399
ltoes 5.69824
1866
root 5.76851 14.4227 1.22637 -170.798 4.74825 -175.974
lowerback 7.30724 0.748212 3.14617
upperback -9.66368 1.79931 -3.42246
thorax -14.6269 0.554733 -6.03649
lowerneck -13.4416 -8.17229 -3.74914
upperneck 11.9604 -12.1252 9.06213
head 6.64896 -5.51573 2.2467
rclavicle 2.46493e-014 -8.5875e-014
rhumerus 42.7863 -25.4733 -9.58112
rradius 57.8372
rwrist 22.4803
rhand -49.1961 74.1042
rfingers 7.12502
rthumb -21.8173 45.314
lclavicle 2.46493e-014 -8.5875e-014
lhumerus -61.9695 -64.0973 98.1407
lradius 100.922
lwrist 79.783
lhand 32.7631 373.71
lfingers 7.12502
lthumb 56.1725 30.9652
rfemur -39.2521 -26.9455 23.9093
rtibia 68.0454
rfoot -19.706 -2.25197
rtoes 1.90052
lfemur -38.6058 22.8826 -19.4426
ltibia 60.5758
lfoot -26.1913 11.8873
ltoes 6.44125
1867
root 5.72823 14.407 1.23557 -170.86 5.15792 -176.356
lowerback 7.56417 0.896025 2.81429
upperback -9.60021 1.92547 -3.64164
thorax -14.6976 0.629106 -6.13053
lowerneck -13.2353 -8.35647 -4.22157
upperneck 11.5531 -12.4025 9.81355
head 6.58447 -5.64402 2.53406
rclavicle -1.47101e-014 3.02153e-014
rhumerus 41.5511 -25.6172 -9.70579
rradius 57.8014
rwrist 22.2449
rhand -49.2706 74.0955
rfingers 7.12502
rthumb -21.8889 45.3136
lclavicle -1.47101e-014 3.02153e-014
lhumerus -61.3403 -64.2435 97.4018
lradius 100.933
lwrist 79.6791
lhand 32.7536 373.726
lfingers 7.12502
lthumb 56.164 30.9878
rfemur -40.6091 -27.1524 23.1994
rtibia 69.8571
rfoot -18.1024 -0.9624
rtoes 3.37648
lfemur -38.6582 22.6137 -20.0087
ltibia 60.7226
lfoot -26.1954 12.2456
ltoes 6.64052
1868
root 5.69164 14.3969 1.24249 -170.931 5.58398 -176.803
lowerback 7.77465 1.03617 2.39804
upperback -9.52577 2.02623 -3.89494
thorax -14.7303 0.701771 -6.20838
lowerneck -13.0266 -8.52569 -4.67432
upperneck 11.143 -12.6738 10.5989
head 6.52368 -5.77028 2.82902
rclavicle 2.24627e-014 -2.22639e-014
rhumerus 40.3064 -25.7496 -9.9115
rradius 57.7408
rwrist 22.0029
rhand -49.3549 74.1363
rfingers 7.12502
rthumb -21.9698 45.3639
lclavicle 2.24627e-014 -2.22639e-014
lhumerus -60.6883 -64.3953 96.5537
lradius 100.977
lwrist 79.5985
lhand 32.7082 373.732
lfingers 7.12502
lthumb 56.1239 31.0254
rfemur -42.0035 -27.4034 22.4466
rtibia 71.6081
rfoot -16.4111 0.324276
rtoes 5.07157
lfemur -38.6094 22.5194 -20.6578
ltibia 60.7272
lfoot -26.2132 12.5898
ltoes 6.7589
